# AST/ASF file generated using VICON BodyLanguage
# -----------------------------------------------
:version 1.10
:name VICON
:units
  mass 1.0
  length 0.45
  angle deg
:documentation
   .ast/.asf automatically generated from VICON data using
   VICON BodyBuilder and BodyLanguage model FoxedUp or BRILLIANT.MOD
:root
   order TX TY TZ RX RY RZ
   axis XYZ
   position 0 0 0  
   orientation 0 0 0 
:bonedata
  begin
     id 1 
     name lhipjoint
     direction 0.61522 -0.761478 0.204097 
     length 2.55743 
     axis 0 0 0  XYZ
  end
  begin
     id 2 
     name lfemur
     direction 0.34202 -0.939693 0  
     length 7.61162  
     axis 0 0 20  XYZ
    dof rx ry rz
    limits (-160.0 20.0)
           (-70.0 70.0)
           (-60.0 70.0)
  end
  begin
     id 3 
     name ltibia
     direction 0.34202 -0.939693 0   
     length 8.12393   
     axis 0 0 20   XYZ
    dof rx
    limits (-10.0 170.0)
  end
  begin
     id 4 
     name lfoot
     direction 0.0841971 -0.23133 0.969225   
     length 2.3572   
     axis -90 7.62852e-016 20   XYZ
    dof rx rz
    limits (-45.0 90.0)
           (-70.0 20.0)
  end
  begin
     id 5 
     name ltoes
     direction 1.53562e-011 -4.22209e-011 1   
     length 1.17993   
     axis -90 7.62852e-016 20   XYZ
    dof rx
    limits (-90.0 20.0)
  end
  begin
     id 6 
     name rhipjoint
     direction -0.625247 -0.75382 0.202044   
     length 2.58341  
     axis 0 0 0  XYZ 
  end
  begin
     id 7 
     name rfemur
     direction -0.34202 -0.939693 0   
     length 7.42147   
     axis 0 0 -20   XYZ
    dof rx ry rz
    limits (-160.0 20.0)
           (-70.0 70.0)
           (-70.0 60.0)
  end
  begin
     id 8 
     name rtibia
     direction -0.34202 -0.939693 0   
     length 8.20893   
     axis 0 0 -20   XYZ
    dof rx
    limits (-10.0 170.0)
 end
 begin
     id 9 
     name rfoot
     direction -0.124331 -0.341598 0.931586   
     length 2.45604  
     axis -90 -7.62852e-016 -20   XYZ
    dof rx rz
    limits (-45.0 90.0)
           (-20.0 70.0)
  end
  begin
     id 10 
     name rtoes
     direction -1.5353e-011 -4.2199e-011 1   
     length 1.21323   
     axis -90 -7.62852e-016 -20   XYZ
    dof rx
    limits (-90.0 20.0)
  end
  begin
     id 11 
     name lowerback
     direction -0.0218484 0.994884 -0.0986303   
     length 2.00523   
     axis 0 0 0   XYZ
    dof rx ry rz
    limits (-20.0 45.0)
           (-30.0 30.0)
           (-30.0 30.0)
  end
  begin
     id 12 
     name upperback
     direction -0.0097305 0.999717 -0.0217111   
     length 2.01352   
     axis 0 0 0   XYZ
    dof rx ry rz
    limits (-20.0 45.0)
           (-30.0 30.0)
           (-30.0 30.0)
  end
  begin
     id 13 
     name thorax
     direction -0.000928262 0.999699 0.0245198   
     length 2.02938   
     axis 0 0 0   XYZ
    dof rx ry rz
    limits (-20.0 45.0)
           (-30.0 30.0)
           (-30.0 30.0)
  end
  begin
     id 14 
     name lowerneck
     direction -0.0307979 0.998024 0.0547665   
     length 1.77263   
     axis 0 0 0   XYZ
    dof rx ry rz
    limits (-20.0 45.0)
           (-30.0 30.0)
           (-30.0 30.0)
  end
  begin
     id 15 
     name upperneck
     direction 0.0531587 0.996611 -0.0627734   
     length 1.77971   
     axis 0 0 0   XYZ
    dof rx ry rz
    limits (-20.0 45.0)
           (-30.0 30.0)
           (-30.0 30.0)
  end
  begin
     id 16
     name head
     direction 0.0213833 0.999404 -0.0271147  
     length 1.78263  
     axis 0 0 0   XYZ
    dof rx ry rz
    limits (-20.0 45.0)
           (-30.0 30.0)
           (-30.0 30.0)
  end
  begin
     id 17 
     name lclavicle
     direction 0.940017 0.332249 -0.0773233  
     length 3.73315  
     axis 0 0 0   XYZ
    dof ry rz
    limits (-20.0 10.0)
           (0.0 20.0)
  end
  begin
     id 18 
     name lhumerus
     direction 1 -4.48944e-011 7.52288e-028   
     length 5.40188   
     axis 180 -30 -90   XYZ
    dof rx ry rz
    limits (-60.0 90.0)
           (-90.0 90.0)
           (-90.0 90.0)
  end
  begin
     id 19
     name lradius
     direction 1 -4.48988e-011 1.48381e-027   
     length 3.68559   
     axis 180 -30 -90   XYZ
    dof rx
    limits (-10.0 170.0)
  end
  begin
     id 20
     name lwrist
     direction 1 -4.48925e-011 2.56952e-028   
     length 1.84279   
     axis -5.12785e-016 90 90   XYZ
    dof ry
    limits (-180.0 0.0)
 end
  begin
     id 21 
     name lhand
     direction 1 -4.49009e-011 5.13905e-028   
     length 0.61753   
     axis -3.27915e-016 90 90   XYZ
    dof rx rz
    limits (-90.0 90.0)
           (-45.0 45.0)
  end
  begin
     id 22 
     name lfingers
     direction 1 -4.49012e-011 1.02781e-027   
     length 0.497868   
     axis -6.5583e-016 90 90   XYZ
    dof rx
    limits (0.0 90.0)
  end
  begin
     id 23
     name lthumb
     direction 0.707107 -6.34987e-011 0.707107   
     length 0.714842   
     axis -90 45 2.85299e-015   XYZ
    dof rx rz
    limits (-45.0 45.0)
           (-45.0 45.0)
  end
  begin
     id 24 
     name rclavicle
     direction -0.9009 0.425937 -0.0834057   
     length 3.27864  
     axis 0 0 0   XYZ 
    dof ry rz
    limits (-10.0 20.0)
           (-20.0 0.0)
  end
  begin
     id 25 
     name rhumerus
     direction -1 -4.48953e-011 -1.03572e-027  
     length 6.1067   
     axis 180 30 90   XYZ
    dof rx ry rz
    limits (-90.0 60.0)
           (-90.0 90.0)
           (-90.0 90.0)
  end
  begin
     id 26 
     name rradius
     direction -1 -4.48975e-011 1.20742e-027   
     length 3.63052   
     axis 180 30 90   XYZ
    dof rx
    limits (-10.0 170.0)
  end
  begin
     id 27 
     name rwrist
     direction -1 -4.49017e-011 2.56952e-028   
     length 1.81526   
     axis -5.12785e-016 -90 -90   XYZ
    dof ry
    limits (-180.0 0.0)
  end
  begin
     id 28
     name rhand
     direction -1 -4.48832e-011 5.13905e-028   
     length 0.583848   
     axis -3.27915e-016 -90 -90   XYZ
    dof rx rz
    limits (-90.0 90.0)
           (-45.0 45.0)
  end
  begin
     id 29
     name rfingers
     direction -1 -4.48729e-011 1.02781e-027   
     length 0.470713   
     axis -6.5583e-016 -90 -90   XYZ
    dof rx
    limits (0.0 90.0)
  end
  begin
     id 30
     name rthumb
     direction -0.707107 -6.34964e-011 0.707107   
     length 0.675852   
     axis -90 -45 -2.85299e-015   XYZ
    dof rx rz
    limits (-45.0 45.0)
           (-45.0 45.0)
  end
:hierarchy
  begin
    root lhipjoint rhipjoint lowerback
    lhipjoint lfemur
    lfemur ltibia
    ltibia lfoot
    lfoot ltoes
    rhipjoint rfemur
    rfemur rtibia
    rtibia rfoot
    rfoot rtoes
    lowerback upperback
    upperback thorax
    thorax lowerneck lclavicle rclavicle
    lowerneck upperneck
    upperneck head
    lclavicle lhumerus
    lhumerus lradius
    lradius lwrist
    lwrist lhand lthumb
    lhand lfingers
    rclavicle rhumerus
    rhumerus rradius
    rradius rwrist
    rwrist rhand rthumb
    rhand rfingers
  end

#!OML:ASF F:\VICON\USERDATA\INSTALL\rory3\rory3.ASF
:FULLY-SPECIFIED
:DEGREES
1
root 0.0964765 18.4785 -1.81861 4.40653 -6.77417 3.00799
lowerback 9.45676 0.208683 -3.31119
upperback 1.49297 -0.14882 -2.08499
thorax -3.74858 -0.0440842 -0.282703
lowerneck -10.5487 -6.46515 -10.415
upperneck 5.91277 -8.17351 10.8994
head 4.37647 -3.74032 4.45414
rclavicle -1.65985e-014 -1.15295e-014
rhumerus -28.4392 -2.72047 -83.3541
rradius 29.2893
rwrist 18.0013
rhand -24.8349 -6.22617
rfingers 7.12502
rthumb 1.67103 -36.1994
lclavicle -1.65985e-014 -1.15295e-014
lhumerus -33.457 13.3398 74.9597
lradius 27.8702
lwrist 2.26565
lhand -20.6628 26.9772
lfingers 7.12502
lthumb 5.69988 56.8806
rfemur -17.4243 17.7163 14.5249
rtibia 35.2036
rfoot -22.1611 -14.1892
rtoes -2.22022
lfemur -15.0875 -0.29432 -22.1171
ltibia 31.7604
lfoot -18.5777 8.14645
ltoes -7.11804
2
root 0.102157 18.4348 -1.84276 4.32378 -6.83774 2.93443
lowerback 9.88562 0.25716 -3.15798
upperback 1.67335 -0.0822299 -2.0492
thorax -3.80056 -0.0137133 -0.340662
lowerneck -10.6513 -6.26759 -10.4694
upperneck 5.45776 -7.86148 10.9671
head 4.22677 -3.58551 4.51297
rclavicle -6.65929e-015 6.36111e-015
rhumerus -28.2745 -2.41405 -83.3544
rradius 29.6987
rwrist 18.0852
rhand -25.9226 -3.82461
rfingers 7.12502
rthumb 0.620492 -33.8035
lclavicle -6.65929e-015 6.36111e-015
lhumerus -33.1818 12.9483 75.276
lradius 28.2872
lwrist 2.11797
lhand -20.7745 27.6828
lfingers 7.12502
lthumb 5.59205 57.5891
rfemur -17.965 17.487 14.5697
rtibia 36.2075
rfoot -22.5526 -13.8754
rtoes -2.54001
lfemur -15.8202 0.143798 -22.0309
ltibia 33.136
lfoot -19.0647 7.67827
ltoes -6.7906
3
root 0.106352 18.3866 -1.86747 4.25886 -6.83702 2.86803
lowerback 10.3716 0.289049 -3.04106
upperback 1.83652 -0.0435574 -2.01109
thorax -3.90093 0.00396861 -0.373113
lowerneck -10.914 -6.08822 -10.4144
upperneck 5.11043 -7.57092 10.9033
head 4.12814 -3.43927 4.50621
rclavicle 1.30204e-014 1.43125e-014
rhumerus -28.0912 -2.07948 -83.3769
rradius 30.2475
rwrist 17.8758
rhand -25.7462 -4.15895
rfingers 7.12502
rthumb 0.790876 -34.1372
lclavicle 1.30204e-014 1.43125e-014
lhumerus -32.9101 12.3233 75.6854
lradius 28.8386
lwrist 2.46802
lhand -21.1336 27.3511
lfingers 7.12502
lthumb 5.24538 57.2662
rfemur -18.4958 17.217 14.6003
rtibia 37.191
rfoot -22.993 -13.4733
rtoes -2.20492
lfemur -16.5698 0.536255 -21.9466
ltibia 34.542
lfoot -19.4337 7.17242
ltoes -6.29073
4
root 0.111334 18.3402 -1.88685 4.14904 -6.73806 2.89971
lowerback 10.8783 0.286 -3.01074
upperback 2.00078 -0.0620708 -2.00033
thorax -4.00996 -0.00560782 -0.377888
lowerneck -11.0199 -5.89471 -10.2598
upperneck 4.61549 -7.27284 10.7508
head 3.9513 -3.29719 4.46012
rclavicle -1.0138e-014 -2.38542e-014
rhumerus -27.9442 -1.73772 -83.4112
rradius 30.7286
rwrist 17.7704
rhand -25.7182 -4.25007
rfingers 7.12502
rthumb 0.817887 -34.2282
lclavicle -1.0138e-014 -2.38542e-014
lhumerus -32.7365 11.6444 76.0638
lradius 29.477
lwrist 2.91877
lhand -21.4058 26.8063
lfingers 7.12502
lthumb 4.98251 56.7277
rfemur -18.9638 16.759 14.5496
rtibia 38.1781
rfoot -23.4221 -13.1231
rtoes -2.25284
lfemur -17.238 0.94838 -21.9872
ltibia 35.9004
lfoot -19.6718 6.65606
ltoes -6.27196
5
root 0.119231 18.2951 -1.90156 4.09766 -6.64056 2.91324
lowerback 11.2473 0.292839 -2.9323
upperback 2.17028 -0.0536573 -1.96315
thorax -4.03707 -0.00311671 -0.385274
lowerneck -11.1092 -5.71866 -10.1872
upperneck 4.1591 -6.99146 10.5865
head 3.78856 -3.16526 4.42189
rclavicle -1.17283e-014 4.37326e-015
rhumerus -27.8701 -1.43212 -83.3665
rradius 31.2889
rwrist 17.5737
rhand -25.8355 -3.92199
rfingers 7.12502
rthumb 0.704604 -33.9006
lclavicle -1.17283e-014 4.37326e-015
lhumerus -32.5848 10.9388 76.4661
lradius 30.0855
lwrist 3.31254
lhand -21.6227 26.6281
lfingers 7.12502
lthumb 4.77309 56.5543
rfemur -19.4853 16.1614 14.5045
rtibia 39.1771
rfoot -23.7459 -12.7851
rtoes -3.00027
lfemur -17.9607 1.33116 -22.0241
ltibia 37.2356
lfoot -19.9188 6.21907
ltoes -6.54735
